<svg xmlns="http://www.w3.org/2000/svg" width="72" height="72" viewBox="0 0 72 72" role="img" aria-label="css3">
  <!-- glow -->
  <rect x="2" y="2" width="68" height="68" rx="18" fill="#1572B6" opacity="0.22">
    <animate attributeName="opacity" values="0.14;0.34;0.14" dur="2.8s" begin="0.48s" repeatCount="indefinite"/>
  </rect>

  <!-- card uses solid fills only for GitHub CSP compatibility -->
  <g>
    <animateTransform attributeName="transform" type="translate" values="0 0; 0 -2; 0 0" dur="3.2s" begin="0.48s" repeatCount="indefinite"/>
    <rect x="6" y="6" width="60" height="60" rx="16" fill="#1a1b27" stroke="#1572B6" stroke-opacity="0.7" stroke-width="1.6"/>
    <rect x="6" y="6" width="60" height="5" rx="2.5" fill="#1572B6">
      <animate attributeName="opacity" values="0.8;1;0.8" dur="2.4s" begin="0.48s" repeatCount="indefinite"/>
    </rect>
    <g>
      <path fill="#1572B6" d="M20 18h32l-2.9 32.6L36 54l-13.1-3.4L20 18Z"/>
      <path fill="#33A9DC" d="M36 20.2V51.5l10.6-2.9L49.2 20.2H36Z"/>
      <path fill="#EBEBEB" d="M25 27.5h11v3.3H28.4l.3 3.2H36v3.3H25.8L25 27.5Zm.8 13.2 1.2 12.2L36 45.8v3.5l-9.3-2.6-.2-1.8.5-5.2h-1.2Z"/>
      <path fill="#ffffff" d="M36 40.7h6.2l-.5 5.1L36 47.5v3.5l9.3-2.6.1-1.1 1-11.3H36v3.3h6.5l-.3 3.4H36v3Z"/>
    </g>
  </g>
</svg>
