<svg xmlns="http://www.w3.org/2000/svg" width="72" height="72" viewBox="0 0 72 72" role="img" aria-label="tailwind">
  <!-- glow -->
  <rect x="2" y="2" width="68" height="68" rx="18" fill="#38BDF8" opacity="0.22">
    <animate attributeName="opacity" values="0.14;0.34;0.14" dur="2.8s" begin="1.44s" repeatCount="indefinite"/>
  </rect>

  <!-- card uses solid fills only for GitHub CSP compatibility -->
  <g>
    <animateTransform attributeName="transform" type="translate" values="0 0; 0 -2; 0 0" dur="3.2s" begin="1.44s" repeatCount="indefinite"/>
    <rect x="6" y="6" width="60" height="60" rx="16" fill="#1a1b27" stroke="#38BDF8" stroke-opacity="0.7" stroke-width="1.6"/>
    <rect x="6" y="6" width="60" height="5" rx="2.5" fill="#38BDF8">
      <animate attributeName="opacity" values="0.8;1;0.8" dur="2.4s" begin="1.44s" repeatCount="indefinite"/>
    </rect>
    <path fill="#7DCFFF" d="M22 34c2.7-5.4 6.4-8.1 11.1-8.1 3.5 0 5.7 1.7 7.4 5.2 1.1 2.3 2.3 3.4 4.1 3.4 2.1 0 3.9-1.3 5.4-3.9C47.3 36 43.6 38.7 38.9 38.7c-3.5 0-5.7-1.7-7.4-5.2-1.1-2.3-2.3-3.4-4.1-3.4-2.1 0-3.9 1.3-5.4 3.9Zm0 10.8c2.7-5.4 6.4-8.1 11.1-8.1 3.5 0 5.7 1.7 7.4 5.2 1.1 2.3 2.3 3.4 4.1 3.4 2.1 0 3.9-1.3 5.4-3.9-2.7 5.4-6.4 8.1-11.1 8.1-3.5 0-5.7-1.7-7.4-5.2-1.1-2.3-2.3-3.4-4.1-3.4-2.1 0-3.9 1.3-5.4 3.9Z"/>
  </g>
</svg>
